<svg xmlns="http://www.w3.org/2000/svg" width="824.513" height="669.171"><defs><filter id="Rectangle_4" x="102.813" y="171.609" width="324.159" height="256.392" filterUnits="userSpaceOnUse"><feOffset dy="1"/><feGaussianBlur stdDeviation="2" result="blur"/><feFlood flood-opacity=".161"/><feComposite operator="in" in2="blur"/><feComposite in="SourceGraphic"/></filter><filter id="Rectangle_15" x="443.83" y="257.114" width="355.818" height="266.679" filterUnits="userSpaceOnUse"><feOffset dy="1"/><feGaussianBlur stdDeviation="2" result="blur-2"/><feFlood flood-opacity=".161"/><feComposite operator="in" in2="blur-2"/><feComposite in="SourceGraphic"/></filter><filter id="Rectangle_5" x="383.113" y="120.928" width="171.236" height="127.97" filterUnits="userSpaceOnUse"><feOffset dy="1"/><feGaussianBlur stdDeviation="2" result="blur-3"/><feFlood flood-opacity=".161"/><feComposite operator="in" in2="blur-3"/><feComposite in="SourceGraphic"/></filter><filter id="Rectangle_5-2" x="411.464" y="208.184" width="171.236" height="127.97" filterUnits="userSpaceOnUse"><feOffset dy="1"/><feGaussianBlur stdDeviation="2" result="blur-4"/><feFlood flood-opacity=".161"/><feComposite operator="in" in2="blur-4"/><feComposite in="SourceGraphic"/></filter><filter id="Rectangle_5-3" x="411.464" y="208.184" width="171.236" height="127.97" filterUnits="userSpaceOnUse"><feOffset dy="1"/><feGaussianBlur stdDeviation="2" result="blur-5"/><feFlood flood-opacity=".161"/><feComposite operator="in" in2="blur-5"/><feComposite in="SourceGraphic"/></filter><filter id="Rectangle_5-4" x="523.299" y="16.283" width="247.4" height="183.439" filterUnits="userSpaceOnUse"><feOffset dy="1"/><feGaussianBlur stdDeviation="2" result="blur-6"/><feFlood flood-opacity=".161"/><feComposite operator="in" in2="blur-6"/><feComposite in="SourceGraphic"/></filter><filter id="Rectangle_5-5" x="562.811" y="159.008" width="171.236" height="127.97" filterUnits="userSpaceOnUse"><feOffset dy="1"/><feGaussianBlur stdDeviation="2" result="blur-7"/><feFlood flood-opacity=".161"/><feComposite operator="in" in2="blur-7"/><feComposite in="SourceGraphic"/></filter><filter id="Rectangle_14" x="163.53" y="358.475" width="324.159" height="256.392" filterUnits="userSpaceOnUse"><feOffset dy="1"/><feGaussianBlur stdDeviation="2" result="blur-8"/><feFlood flood-opacity=".161"/><feComposite operator="in" in2="blur-8"/><feComposite in="SourceGraphic"/></filter><linearGradient id="linear-gradient" x1=".5" x2=".5" y2="1" gradientUnits="objectBoundingBox"><stop offset="0" stop-color="#5c5afc"/><stop offset="1" stop-color="#4847fa"/></linearGradient></defs><g id="Group_8" data-name="Group 8" transform="rotate(-18.01 1065.316 5430.332)"><rect id="Rectangle_1" data-name="Rectangle 1" width="713.672" height="471.722" rx="8" transform="translate(1662 146)" fill="#f4f4f4"/><path id="Rectangle_2" data-name="Rectangle 2" d="M0 0h69.825v418.948H8a8 8 0 0 1-8-8V0Z" transform="translate(1662 198.774)" fill="url('#linear-gradient')"/><path id="Rectangle_3" data-name="Rectangle 3" d="M8 0h697.672a8 8 0 0 1 8 8v44.774H0V8a8 8 0 0 1 8-8Z" transform="translate(1662 146)" fill="#dae3ea"/><g transform="rotate(18.2 1077.758 5407.297)" filter="url('#Rectangle_4')"><rect id="Rectangle_4-2" data-name="Rectangle 4" width="273.615" height="168.066" rx="4" transform="rotate(-18.2 876.269 -209.666)" fill="#fff"/></g><g transform="rotate(18.2 1077.758 5407.297)" filter="url('#Rectangle_15')"><rect id="Rectangle_15-2" data-name="Rectangle 15" width="306.903" height="168.066" rx="4" transform="rotate(-18.2 1350.365 -1233.264)" fill="#fff"/></g><rect id="Rectangle_8" data-name="Rectangle 8" width="448.988" height="18.674" rx="4" transform="translate(1774.856 163.05)" fill="#fff"/><rect id="Rectangle_9" data-name="Rectangle 9" width="34.912" height="18.674" rx="4" transform="translate(1714.774 163.05)" fill="#fff"/><rect id="Rectangle_10" data-name="Rectangle 10" width="34.912" height="18.674" rx="4" transform="translate(2242.518 163.05)" fill="#fff"/><circle id="Ellipse_1" data-name="Ellipse 1" cx="9.337" cy="9.337" r="9.337" transform="translate(2291.233 163.05)" fill="#fff"/><path id="Rectangle_16" data-name="Rectangle 16" transform="translate(1785.411 255.608)" fill="#5250fb" d="M0 0h23.546v102.301H0z"/><path id="Rectangle_19" data-name="Rectangle 19" transform="translate(1904.762 255.608)" fill="#5250fb" d="M0 0h23.546v102.301H0z"/><path id="Rectangle_20" data-name="Rectangle 20" transform="translate(1944.546 282.402)" fill="#50cdfb" d="M0 0h23.546v75.508H0z"/><path id="Rectangle_17" data-name="Rectangle 17" transform="translate(1825.195 283.213)" fill="#50cdfb" d="M0 0h23.546v74.696H0z"/><path id="Rectangle_18" data-name="Rectangle 18" transform="translate(1864.979 301.887)" fill="#f55d5d" d="M0 0h23.546v56.022H0z"/><g id="Group_1" data-name="Group 1" transform="translate(2047.659 218.26)"><g transform="rotate(18.2 725.603 -1141.259)" filter="url('#Rectangle_5')"><rect id="Rectangle_5-6" data-name="Rectangle 5" width="142.897" height="75.508" rx="4" transform="rotate(-18.2 732.083 -1137.116)" fill="#fff"/></g><circle id="Ellipse_2" data-name="Ellipse 2" cx="13.397" cy="13.397" r="13.397" transform="translate(11.367 10.555)" fill="#5250fb"/><path id="Rectangle_21" data-name="Rectangle 21" transform="translate(17.05 48.715)" fill="#dae3ea" d="M0 0h109.608v13.803H0z"/><path id="Rectangle_22" data-name="Rectangle 22" transform="translate(47.903 16.238)" fill="#dae3ea" d="M0 0h77.132v8.119H0z"/><path id="Rectangle_23" data-name="Rectangle 23" transform="translate(47.903 30.041)" fill="#dae3ea" d="M0 0h51.151v8.119H0z"/></g><g id="Group_4" data-name="Group 4" transform="translate(2047.659 310.007)"><g transform="rotate(18.2 1014.067 -1187.785)" filter="url('#Rectangle_5-2')"><rect id="Rectangle_5-7" data-name="Rectangle 5" width="142.897" height="75.508" rx="4" transform="rotate(-18.2 1020.775 -1182.004)" fill="#fff"/></g><circle id="Ellipse_2-2" data-name="Ellipse 2" cx="13.397" cy="13.397" r="13.397" transform="translate(11.367 10.555)" fill="#f55d5d"/><path id="Rectangle_21-2" data-name="Rectangle 21" transform="translate(17.05 48.715)" fill="#dae3ea" d="M0 0h109.608v13.803H0z"/><path id="Rectangle_22-2" data-name="Rectangle 22" transform="translate(47.903 16.238)" fill="#dae3ea" d="M0 0h77.132v8.119H0z"/><path id="Rectangle_23-2" data-name="Rectangle 23" transform="translate(47.903 30.041)" fill="#dae3ea" d="M0 0h51.151v8.119H0z"/></g><g id="Group_5" data-name="Group 5" transform="translate(2047.659 310.007)"><g transform="rotate(18.2 1014.067 -1187.785)" filter="url('#Rectangle_5-3')"><rect id="Rectangle_5-8" data-name="Rectangle 5" width="142.897" height="75.508" rx="4" transform="rotate(-18.2 1020.775 -1182.004)" fill="#fff"/></g><circle id="Ellipse_2-3" data-name="Ellipse 2" cx="13.397" cy="13.397" r="13.397" transform="translate(11.367 10.555)" fill="#f55d5d"/><path id="Rectangle_21-3" data-name="Rectangle 21" transform="translate(17.05 48.715)" fill="#dae3ea" d="M0 0h109.608v13.803H0z"/><path id="Rectangle_22-3" data-name="Rectangle 22" transform="translate(47.903 16.238)" fill="#dae3ea" d="M0 0h77.132v8.119H0z"/><path id="Rectangle_23-3" data-name="Rectangle 23" transform="translate(47.903 30.041)" fill="#dae3ea" d="M0 0h51.151v8.119H0z"/></g><g id="Group_2" data-name="Group 2" transform="translate(2206.794 182.144)"><g transform="rotate(18.2 531.378 -1623.255)" filter="url('#Rectangle_5-4')"><rect id="Rectangle_5-9" data-name="Rectangle 5" width="211.245" height="111.624" rx="4" transform="rotate(-18.2 540.554 -1620.233)" fill="#fff"/></g><circle id="Ellipse_2-4" data-name="Ellipse 2" cx="19.804" cy="19.804" r="19.804" transform="translate(16.804 15.603)" fill="#50cdfb"/><path id="Rectangle_21-4" data-name="Rectangle 21" transform="translate(25.205 72.015)" fill="#dae3ea" d="M0 0h162.035v20.404H0z"/><path id="Rectangle_22-4" data-name="Rectangle 22" transform="translate(70.815 24.005)" fill="#dae3ea" d="M0 0h114.024v12.003H0z"/><path id="Rectangle_23-4" data-name="Rectangle 23" transform="translate(70.815 44.41)" fill="#dae3ea" d="M0 0h75.616v12.003H0z"/></g><g id="Group_3" data-name="Group 3" transform="translate(2206.794 310.007)"><g transform="rotate(18.2 933.372 -1688.092)" filter="url('#Rectangle_5-5')"><rect id="Rectangle_5-10" data-name="Rectangle 5" width="142.897" height="75.508" rx="4" transform="rotate(-18.2 942.933 -1682.785)" fill="#fff"/></g><circle id="Ellipse_2-5" data-name="Ellipse 2" cx="13.397" cy="13.397" r="13.397" transform="translate(11.367 10.555)" fill="#5250fb"/><path id="Rectangle_21-5" data-name="Rectangle 21" transform="translate(17.05 48.715)" fill="#dae3ea" d="M0 0h109.608v13.803H0z"/><path id="Rectangle_22-5" data-name="Rectangle 22" transform="translate(47.903 16.238)" fill="#dae3ea" d="M0 0h77.132v8.119H0z"/><path id="Rectangle_23-5" data-name="Rectangle 23" transform="translate(47.903 30.041)" fill="#dae3ea" d="M0 0h51.151v8.119H0z"/><path id="Rectangle_27" data-name="Rectangle 27" transform="translate(47.903 30.041)" fill="#dae3ea" d="M0 0h51.151v8.119H0z"/></g><g id="Group_12" data-name="Group 12" transform="translate(1752.934 414.744)"><g transform="rotate(18.2 1492.829 -314.263)" filter="url('#Rectangle_14')"><rect id="Rectangle_14-2" data-name="Rectangle 14" width="273.615" height="168.066" rx="4" transform="rotate(-18.2 1494.582 -305.81)" fill="#fff"/></g><path id="Path_1" data-name="Path 1" d="m21.34 123 68-60.985 43.129 24.914 101.52-53.015" fill="none" stroke="#5250fb" stroke-width="4"/><path id="Path_2" data-name="Path 2" d="m21.34 96.726 70.385-16.8 33.059-23.211 52.841-10.6 22.235-15.216 33.012 65.827" fill="none" stroke="#f55d5d" stroke-width="4"/><path id="Path_3" data-name="Path 3" d="m21.34 70.734 89.493 39.43 43.4-5.947h35.194l42.419 11.123" fill="none" stroke="#50cdfb" stroke-width="4"/></g><g id="Group_6" data-name="Group 6" transform="translate(2076.6 428.258)" fill="none"><g id="Ellipse_3" data-name="Ellipse 3" transform="translate(10.843 10.843)" stroke="#5250fb" stroke-width="18"><circle cx="54.398" cy="54.398" r="54.398" stroke="none"/><circle cx="54.398" cy="54.398" r="45.398"/></g><g id="Path_4" data-name="Path 4" stroke-dasharray="100 300"><path d="M54.4 0A54.4 54.4 0 1 1 0 54.4 54.4 54.4 0 0 1 54.4 0Z" transform="translate(10.843 10.843)"/><path d="M54.398 0c30.044 0 54.398 24.355 54.398 54.398V54.714a2.618 2.618 0 0 1 0 .03v.005a29.878 29.878 0 0 1-.001.053v.096l-.001.02v.093l-.001.026V55.092l-.001.007v.061l-.001.018v.06l-.001.01v.051l-.001.006v.047a3.232 3.232 0 0 0-.001.034v.027l-.001.008v.027l-.001.026v.035l-.001.018v.039l-.001.021V55.614l-.001.009v.026l-.001.025V55.701l-.001.008v.027l-.001.026v.007l-.001.02v.034l-.002.026v.035l-.001.02a2.143 2.143 0 0 0 0 .032l-.001.007v.028l-.001.02v.006l-.001.026v.008l-.001.018v.009l-.001.02v.006l-.001.026V56.136l-.001.009V56.171l-.002.026v.036l-.001.016v.01l-.002.024V56.32l-.001.017v.01l-.002.025V56.406l-.002.017a4.585 4.585 0 0 0 0 .035l-.001.006v.019l-.001.01v.017l-.001.01-.001.023v.007l-.001.02v.01l-.001.016v.011l-.001.02v.01l-.002.02V56.684l-.001.01v.017l-.001.015-.001.017v.011l-.001.015a5.692 5.692 0 0 0-.002.029v.032l-.001.01-.001.017v.01l-.001.017v.009l-.002.024v.01l-.001.016v.011l-.001.016v.01l-.002.024v.01l-.001.016v.01l-.001.016v.01a24.922 24.922 0 0 1-.004.061v.016l-.001.01-.001.023v.012l-.002.015v.026l-.001.01-.002.024v.01l-.001.016v.012l-.001.015-.001.01-.001.024v.01l-.002.016v.011a8.555 8.555 0 0 1-.003.046v.014l-.001.015-.001.012v.014l-.001.012a9.885 9.885 0 0 1-.002.035l-.001.013v.013l-.002.012v.014l-.001.012-.002.023v.012l-.001.015v.01l-.002.014a4.663 4.663 0 0 1-.002.035v.013l-.001.013v.011l-.002.015v.011l-.002.024v.012l-.002.014v.01l-.001.015v.01l-.002.025-.001.013v.013a6.163 6.163 0 0 1-.003.026v.01l-.002.03v.006l-.002.016v.008l-.001.017a2.145 2.145 0 0 1-.003.04v.006l-.001.016v.007l-.002.017v.007l-.003.038-.001.016v.01a9.376 9.376 0 0 1-.008.101v.01l-.004.052v.01l-.002.014v.01a38.24 38.24 0 0 1-.004.051l-.001.01-.001.015v.01l-.002.016a.365.365 0 0 0-.003.037v.008l-.002.016v.009l-.002.016v.003a53.95 53.95 0 0 1-.002.035v.007l-.002.016v.008l-.005.057v.005l-.002.016v.008l-.002.017v.004a60.298 60.298 0 0 1-.003.04l-.002.018v.007l-.002.017v.004l-.003.035v.006l-.002.016v.009l-.002.016v.006a29.69 29.69 0 0 1-.003.036v.002l-.002.018v.007l-.002.018v.002a50.89 50.89 0 0 1-.006.066l-.001.018v.003a74.886 74.886 0 0 1-.006.064l-.001.018v.005l-.006.058v.005l-.002.018v.006a70.208 70.208 0 0 1-.008.08v.004a73.43 73.43 0 0 1-.005.06v.003l-.002.02v.003a52.047 52.047 0 0 1-.007.063l-.001.02v.003l-.006.059v.004l-.002.018-.001.006-.006.059v.002l-.002.02v.003l-.008.083v.003l-.009.083v.002a49.58 49.58 0 0 1-.008.084v.002l-.002.02v.001l-.007.062v.002l-.009.084v.002l-.018.17-.002.021v.001l-.019.17v.001l-.01.085-.01.086a54.192 54.192 0 0 1-1.223 6.817l-.02.082a47.421 47.421 0 0 1-.042.166l-.004.017a1.071 1.071 0 0 1-.016.064l-.005.018a41.887 41.887 0 0 1-.015.058l-.001.006-.005.017v.004l-.014.053-.002.008-.004.015-.003.01-.003.012-.004.015-.005.02-.002.01-.004.014-.002.01a9.1 9.1 0 0 0-.004.013l-.003.011-.006.023-.002.01-.004.014-.003.01a5.829 5.829 0 0 0-.003.013l-.004.016-.004.016-.004.013-.003.012-.003.012a6.846 6.846 0 0 1-.003.012l-.005.017-.003.014-.004.014-.003.011a34.6 34.6 0 0 0-.004.014l-.002.01-.005.016c0 .005-.002.01-.004.016l-.004.015a6.462 6.462 0 0 0-.006.024l-.003.01-.005.02-.002.008a65.91 65.91 0 0 1-.005.019l-.003.01-.004.014-.002.01-.005.018-.003.01-.005.019-.002.009-.004.015-.003.01-.005.02-.001.003-.007.024-.002.007-.005.019-.001.006-.006.02-.001.005-.006.024-.003.008-.004.016-.002.009-.006.019-.001.005-.006.023-.001.003-17.364-4.744a36.534 36.534 0 0 0 1.282-9.628C90.796 34.328 74.468 18 54.398 18V0Z" fill="#50cdfb" transform="translate(10.843 10.843)"/></g><g id="Path_5" data-name="Path 5" stroke-dasharray="100 300"><path d="M54.4 0A54.4 54.4 0 1 1 0 54.4 54.4 54.4 0 0 1 54.4 0Z" transform="rotate(103 55.507 64.132)"/><path d="M54.398 0c30.044 0 54.398 24.355 54.398 54.398V54.714a2.618 2.618 0 0 1 0 .03v.005a29.878 29.878 0 0 1-.001.053v.096l-.001.02v.093l-.001.026V55.092l-.001.007v.061l-.001.018v.06l-.001.01v.051l-.001.006v.047a3.232 3.232 0 0 0-.001.034v.027l-.001.008v.027l-.001.026v.035l-.001.018v.039l-.001.021V55.614l-.001.009v.026l-.001.025V55.701l-.001.008v.027l-.001.026v.007l-.001.02v.034l-.002.026v.035l-.001.02a2.143 2.143 0 0 0 0 .032l-.001.007v.028l-.001.02v.006l-.001.026v.008l-.001.018v.009l-.001.02v.006l-.001.026V56.136l-.001.009V56.171l-.002.026v.036l-.001.016v.01l-.002.024V56.32l-.001.017v.01l-.002.025V56.406l-.002.017a4.585 4.585 0 0 0 0 .035l-.001.006v.019l-.001.01v.017l-.001.01-.001.023v.007l-.001.02v.01l-.001.016v.011l-.001.02v.01l-.002.02V56.684l-.001.01v.017l-.001.015-.001.017v.011l-.001.015a5.692 5.692 0 0 0-.002.029v.032l-.001.01-.001.017v.01l-.001.017v.009l-.002.024v.01l-.001.016v.011l-.001.016v.01l-.002.024v.01l-.001.016v.01l-.001.016v.01a24.922 24.922 0 0 1-.004.061v.016l-.001.01-.001.023v.012l-.002.015v.026l-.001.01-.002.024v.01l-.001.016v.012l-.001.015-.001.01-.001.024v.01l-.002.016v.011a8.555 8.555 0 0 1-.003.046v.014l-.001.015-.001.012v.014l-.001.012a9.885 9.885 0 0 1-.002.035l-.001.013v.013l-.002.012v.014l-.001.012-.002.023v.012l-.001.015v.01l-.002.014a4.663 4.663 0 0 1-.002.035v.013l-.001.013v.011l-.002.015v.011l-.002.024v.012l-.002.014v.01l-.001.015v.01l-.002.025-.001.013v.013a6.163 6.163 0 0 1-.003.026v.01l-.002.03v.006l-.002.016v.008l-.001.017a2.145 2.145 0 0 1-.003.04v.006l-.001.016v.007l-.002.017v.007l-.003.038-.001.016v.01a9.376 9.376 0 0 1-.008.101v.01l-.004.052v.01l-.002.014v.01a38.24 38.24 0 0 1-.004.051l-.001.01-.001.015v.01l-.002.016a.365.365 0 0 0-.003.037v.008l-.002.016v.009l-.002.016v.003a53.95 53.95 0 0 1-.002.035v.007l-.002.016v.008l-.005.057v.005l-.002.016v.008l-.002.017v.004a60.298 60.298 0 0 1-.003.04l-.002.018v.007l-.002.017v.004l-.003.035v.006l-.002.016v.009l-.002.016v.006a29.69 29.69 0 0 1-.003.036v.002l-.002.018v.007l-.002.018v.002a50.89 50.89 0 0 1-.006.066l-.001.018v.003a74.886 74.886 0 0 1-.006.064l-.001.018v.005l-.006.058v.005l-.002.018v.006a70.208 70.208 0 0 1-.008.08v.004a73.43 73.43 0 0 1-.005.06v.003l-.002.02v.003a52.047 52.047 0 0 1-.007.063l-.001.02v.003l-.006.059v.004l-.002.018-.001.006-.006.059v.002l-.002.02v.003l-.008.083v.003l-.009.083v.002a49.58 49.58 0 0 1-.008.084v.002l-.002.02v.001l-.007.062v.002l-.009.084v.002l-.018.17-.002.021v.001l-.019.17v.001l-.01.085-.01.086a54.192 54.192 0 0 1-1.223 6.817l-.02.082a47.421 47.421 0 0 1-.042.166l-.004.017a1.071 1.071 0 0 1-.016.064l-.005.018a41.887 41.887 0 0 1-.015.058l-.001.006-.005.017v.004l-.014.053-.002.008-.004.015-.003.01-.003.012-.004.015-.005.02-.002.01-.004.014-.002.01a9.1 9.1 0 0 0-.004.013l-.003.011-.006.023-.002.01-.004.014-.003.01a5.829 5.829 0 0 0-.003.013l-.004.016-.004.016-.004.013-.003.012-.003.012a6.846 6.846 0 0 1-.003.012l-.005.017-.003.014-.004.014-.003.011a34.6 34.6 0 0 0-.004.014l-.002.01-.005.016c0 .005-.002.01-.004.016l-.004.015a6.462 6.462 0 0 0-.006.024l-.003.01-.005.02-.002.008a65.91 65.91 0 0 1-.005.019l-.003.01-.004.014-.002.01-.005.018-.003.01-.005.019-.002.009-.004.015-.003.01-.005.02-.001.003-.007.024-.002.007-.005.019-.001.006-.006.02-.001.005-.006.024-.003.008-.004.016-.002.009-.006.019-.001.005-.006.023-.001.003-17.364-4.744a36.534 36.534 0 0 0 1.282-9.628C90.796 34.328 74.468 18 54.398 18V0Z" fill="#f55d5d" transform="rotate(103 55.507 64.132)"/></g></g><rect id="Rectangle_24" data-name="Rectangle 24" width="11.367" height="11.367" rx="2" transform="translate(2245.766 445.596)" fill="#5250fb"/><rect id="Rectangle_25" data-name="Rectangle 25" width="11.367" height="11.367" rx="2" transform="translate(2245.766 467.518)" fill="#50cdfb"/><rect id="Rectangle_26" data-name="Rectangle 26" width="11.367" height="11.367" rx="2" transform="translate(2245.766 489.44)" fill="#f55d5d"/><path id="Rectangle_28" data-name="Rectangle 28" transform="translate(2271.747 447.22)" fill="#dae3ea" d="M0 0h51.151v6.495H0z"/><path id="Rectangle_29" data-name="Rectangle 29" transform="translate(2271.747 469.142)" fill="#dae3ea" d="M0 0h40.596v6.495H0z"/><path id="Rectangle_30" data-name="Rectangle 30" transform="translate(2271.747 491.063)" fill="#dae3ea" d="M0 0h40.596v6.495H0z"/><g id="Group_7" data-name="Group 7" transform="translate(1682.298 231.326)" fill="#fff"><path id="chart-bar-solid" d="M18.471 78.208H20.6a.764.764 0 0 0 .71-.71v-7.459a.764.764 0 0 0-.71-.71h-2.129a.764.764 0 0 0-.71.71V77.5a.764.764 0 0 0 .71.708Zm5.328 0h2.131a.764.764 0 0 0 .71-.71V64.71a.764.764 0 0 0-.71-.71H23.8a.764.764 0 0 0-.71.71V77.5a.764.764 0 0 0 .71.708Zm-15.985 0h2.132a.764.764 0 0 0 .71-.71v-3.907a.764.764 0 0 0-.71-.71H7.815a.764.764 0 0 0-.71.71V77.5a.764.764 0 0 0 .71.708Zm5.328 0h2.131a.764.764 0 0 0 .71-.71V66.486a.764.764 0 0 0-.71-.71h-2.13a.764.764 0 0 0-.71.71V77.5a.764.764 0 0 0 .71.708Zm14.386 3.552H3.552V64.888A.888.888 0 0 0 2.664 64H.888a.888.888 0 0 0-.888.888v18.649a1.776 1.776 0 0 0 1.776 1.776h25.753a.888.888 0 0 0 .888-.888v-1.776a.888.888 0 0 0-.888-.888Z" transform="translate(0 -4.663)"/><path id="home-solid" d="m13.816 37.783-9.1 7.491v8.085a.789.789 0 0 0 .789.789l5.528-.014a.789.789 0 0 0 .785-.789v-4.722a.789.789 0 0 1 .789-.789h3.163a.789.789 0 0 1 .789.789v4.718a.789.789 0 0 0 .789.792l5.526.015a.789.789 0 0 0 .789-.789v-8.09l-9.093-7.486a.6.6 0 0 0-.755 0Zm14.367 5.091-4.124-3.4v-6.832a.592.592 0 0 0-.592-.592H20.7a.592.592 0 0 0-.592.592v3.582L15.7 32.59a2.368 2.368 0 0 0-3.009 0L.2 42.874a.592.592 0 0 0-.079.834l1.258 1.529a.592.592 0 0 0 .834.08l11.6-9.557a.6.6 0 0 1 .755 0l11.6 9.557a.592.592 0 0 0 .834-.079l1.258-1.529a.592.592 0 0 0-.084-.835Z" transform="translate(.015 -32.05)"/><path id="share-alt-solid" d="M22.328 20.3a6.063 6.063 0 0 0-3.793 1.325l-6.5-4.063a6.124 6.124 0 0 0 0-2.644l6.5-4.063a6.078 6.078 0 1 0-2.152-3.442l-6.5 4.063a6.089 6.089 0 1 0 0 9.528l6.5 4.063a6.09 6.09 0 1 0 5.945-4.767Z" transform="translate(0 117.653)"/><path id="users-cog-solid" d="M27.11 45.83a5.209 5.209 0 0 0 0-1.892l1.146-.662a.322.322 0 0 0 .144-.376 6.664 6.664 0 0 0-1.474-2.549.324.324 0 0 0-.4-.062l-1.146.662A5.214 5.214 0 0 0 23.744 40v-1.319a.323.323 0 0 0-.253-.315 6.7 6.7 0 0 0-2.94 0 .323.323 0 0 0-.253.315V40a5.214 5.214 0 0 0-1.639.946l-1.146-.662a.325.325 0 0 0-.4.062A6.664 6.664 0 0 0 15.64 42.9a.327.327 0 0 0 .147.377l1.146.662a5.209 5.209 0 0 0 0 1.892l-1.146.662a.322.322 0 0 0-.147.377 6.7 6.7 0 0 0 1.474 2.549.324.324 0 0 0 .4.062l1.146-.662a5.214 5.214 0 0 0 1.639.946v1.323a.323.323 0 0 0 .253.315 6.7 6.7 0 0 0 2.94 0 .323.323 0 0 0 .253-.315v-1.323a5.214 5.214 0 0 0 1.639-.946l1.146.662a.325.325 0 0 0 .4-.062 6.664 6.664 0 0 0 1.47-2.549.327.327 0 0 0-.147-.377Zm-5.085 1.208a2.154 2.154 0 1 1 2.154-2.154 2.156 2.156 0 0 1-2.154 2.154ZM4.263 40.622a2.842 2.842 0 1 0-2.842-2.842 2.845 2.845 0 0 0 2.842 2.842Zm9.947 1.421c.084 0 .164-.022.249-.027a8.186 8.186 0 0 1 1.612-2.629 1.75 1.75 0 0 1 1.283-.56 1.707 1.707 0 0 1 .87.235l.351.2.107-.062a4.915 4.915 0 0 0 .5-2.132 4.971 4.971 0 1 0-4.969 4.969Zm4.672 8.637c-.1-.053-.2-.115-.3-.173a2.194 2.194 0 0 1-1.221.435 1.765 1.765 0 0 1-1.283-.56 8.1 8.1 0 0 1-1.785-3.091 1.9 1.9 0 0 1 1.146-2.234q-.007-.173 0-.346l-.351-.2a1.809 1.809 0 0 1-.435-.36c-.147.009-.289.027-.435.027a7.01 7.01 0 0 1-3.042-.71H10.8a5.118 5.118 0 0 0-5.12 5.116v1.279a2.132 2.132 0 0 0 2.135 2.127h11.342a1.71 1.71 0 0 1-.275-.9ZM7.687 42.869a2.834 2.834 0 0 0-2-.826H2.842A2.845 2.845 0 0 0 0 44.885v1.421a1.419 1.419 0 0 0 1.421 1.421h2.926a6.512 6.512 0 0 1 3.34-4.858Z" transform="translate(0 157.001)"/></g></g></svg>